<svg xmlns="http://www.w3.org/2000/svg" width="980" height="430" viewBox="0 0 980 430" role="img" aria-labelledby="t d"><title id="t">2025年第47题卫星链路网络拓扑</title><desc id="d">依据2025年408公开原卷逐结构核对重绘：工程部H-S1-R1-TR1，经天通一号卫星链路到TR2-R2，总部侧连接Internet及S2-总部服务器；卫星轨道高度36000km，传播速度300000km/s，TR1/TR2链路速率200kbps。</desc><defs><marker id="a" markerWidth="8" markerHeight="8" refX="7" refY="3" orient="auto"><path d="M0 0L8 3L0 6Z" fill="#111"/></marker></defs><rect width="980" height="430" fill="#fff"/><g stroke="#111" stroke-width="2" fill="none"><rect x="40" y="150" width="395" height="210"/><rect x="575" y="150" width="365" height="210"/><ellipse cx="155" cy="245" rx="85" ry="55" stroke-dasharray="9 6"/><line x1="190" y1="245" x2="250" y2="245"/><line x1="300" y1="245" x2="355" y2="245"/><line x1="395" y1="245" x2="445" y2="245"/><line x1="535" y1="245" x2="585" y2="245"/><line x1="625" y1="245" x2="690" y2="245"/><line x1="735" y1="245" x2="790" y2="245"/><line x1="820" y1="245" x2="880" y2="245"/><line x1="712" y1="205" x2="712" y2="135"/><line x1="712" y1="135" x2="825" y2="135"/><line x1="490" y1="87" x2="445" y2="225" stroke-dasharray="4 5"/><line x1="490" y1="87" x2="585" y2="225" stroke-dasharray="4 5"/><rect x="255" y="225" width="45" height="30"/><rect x="690" y="225" width="45" height="30"/><rect x="805" y="226" width="42" height="28"/><rect x="875" y="222" width="48" height="36"/><path d="M340 235 l28 10 -28 10 z"/><path d="M600 235 l28 10 -28 10 z"/><circle cx="385" cy="245" r="24"/><circle cx="712" cy="245" r="24"/><path d="M470 68 h40 l12 18 -12 18 h-40 l-12 -18z"/><path d="M452 76 l-35 -18 M528 76 l35 -18 M452 96 l-35 18 M528 96 l35 18"/><ellipse cx="825" cy="135" rx="45" ry="24"/></g><g font-family="Arial,'Noto Sans CJK SC',sans-serif" fill="#111" text-anchor="middle"><text x="237" y="172" font-size="20">工程部网络</text><text x="758" y="172" font-size="20">公司总部网络</text><text x="135" y="225" font-size="18">管理区子网</text><text x="135" y="250" font-size="19">H</text><text x="135" y="275" font-size="17">10.10.10.33/26</text><text x="278" y="218" font-size="18">S1</text><text x="385" y="285" font-size="18">R1</text><text x="427" y="275" font-size="18">TR1</text><text x="427" y="300" font-size="17">200kbps</text><text x="490" y="42" font-size="21">天通一号</text><text x="490" y="122" font-size="17">轨道高度36000km</text><text x="490" y="143" font-size="17">电磁波速度300000km/s</text><text x="558" y="275" font-size="18">TR2</text><text x="558" y="300" font-size="17">200kbps</text><text x="712" y="285" font-size="18">R2</text><text x="825" y="141" font-size="18">Internet</text><text x="826" y="217" font-size="18">S2</text><text x="900" y="286" font-size="18">公司总部服务器</text><text x="490" y="185" font-size="17">采用全双工调制解调，信号经过卫星</text></g></svg>