<svg xmlns="http://www.w3.org/2000/svg" viewBox="0 0 420 320" role="img" aria-labelledby="t d"><title id="t">2017年第42题带权连通图G</title><desc id="d">依据2017年408原卷公开扫描精确重绘。边权：AB=6，AE=5，BC=4，CD=6，DE=4，AD=4，CE=5。</desc><g stroke="#111" stroke-width="3" fill="none"><path d="M210 42L105 118M210 42l105 76M105 118l35 105M140 223h140M280 223l35-105M210 42l70 181M140 223l175-105"/></g><g font-family="Arial,Helvetica,sans-serif" font-size="18" fill="#111" text-anchor="middle"><text x="145" y="72">6</text><text x="275" y="72">5</text><text x="105" y="176">4</text><text x="210" y="246">6</text><text x="315" y="176">4</text><text x="250" y="132">4</text><text x="224" y="162">5</text></g><g fill="#fff" stroke="#111" stroke-width="3"><circle cx="210" cy="42" r="23"/><circle cx="105" cy="118" r="23"/><circle cx="140" cy="223" r="23"/><circle cx="280" cy="223" r="23"/><circle cx="315" cy="118" r="23"/></g><g font-family="Arial,Helvetica,sans-serif" font-size="22" fill="#111" text-anchor="middle" dominant-baseline="central"><text x="210" y="42">A</text><text x="105" y="118">B</text><text x="140" y="223">C</text><text x="280" y="223">D</text><text x="315" y="118">E</text></g></svg>